<?xml version="1.0" encoding="utf-8"?>
<!-- Generator: Adobe Illustrator 25.2.1, SVG Export Plug-In . SVG Version: 6.00 Build 0)  -->
<svg version="1.1" id="레이어_1" xmlns="http://www.w3.org/2000/svg" xmlns:xlink="http://www.w3.org/1999/xlink" x="0px"
	 y="0px" viewBox="0 0 18.8 18.3" style="enable-background:new 0 0 18.8 18.3;" xml:space="preserve">
<style type="text/css">
	.st0{fill:#FFFFFF;}
</style>
<g id="call" transform="translate(0 -5.003)">
	<g id="Group_3466" transform="translate(0 5.003)">
		<g id="Group_3465" transform="translate(0 0)">
			<path id="Path_902" class="st0" d="M11.4,9.4c0,0,0,0.1,0,0.1c0,0.1,0.1,0.3,0.2,0.3c0.1,0,0.3-0.1,0.3-0.2c0,0,0,0,0,0
				c0,0,0-0.1,0-0.1V9.3c0-0.3-0.1-0.6-0.1-0.9c-0.3-0.8-0.9-1.4-1.8-1.6C9.8,6.8,9.6,6.8,9.3,6.8c-0.1,0-0.2,0-0.2,0l-0.2,0
				C8.8,6.8,8.7,7,8.7,7.1c0,0.1,0.1,0.2,0.3,0.2c0.1,0,0.1,0,0.2,0h0c0.1,0,0.1,0,0.2,0c0.6,0,1.1,0.2,1.5,0.6
				c0.4,0.4,0.6,0.9,0.6,1.5L11.4,9.4L11.4,9.4z"/>
			<path id="Path_903" class="st0" d="M12.8,9.7c0,0.1,0.1,0.3,0.2,0.3c0.1,0,0.2-0.1,0.3-0.2c0-0.1,0-0.2,0-0.3
				c0-0.2,0-0.4-0.1-0.7c-0.3-1.8-1.8-3.1-3.6-3.3c-0.1,0-0.2,0-0.3,0c-0.1,0-0.2,0-0.3,0c-0.1,0-0.2,0-0.3,0
				c-0.1,0-0.2,0.1-0.2,0.3c0,0.1,0.1,0.2,0.3,0.2l0,0l0.2,0c0,0,0.1,0,0.1,0c0.1,0,0.2,0,0.3,0c0.3,0,0.7,0,1,0.1
				c0.6,0.2,1.1,0.5,1.5,0.9c0.3,0.3,0.6,0.7,0.8,1.2c0.2,0.4,0.2,0.8,0.2,1.3v0.1C12.8,9.5,12.8,9.6,12.8,9.7z"/>
			<path id="Path_904" class="st0" d="M13.1,5.6c-1-1-2.4-1.6-3.8-1.6C9.2,4,9,4,8.9,4C8.7,4,8.5,4,8.4,4c-0.1,0-0.2,0.1-0.2,0.3
				c0,0.1,0.1,0.2,0.3,0.2l0.2,0c0.1,0,0.1,0,0.2,0c0.1,0,0.3,0,0.4,0c2.7,0,4.9,2.2,4.9,4.9c0,0,0,0,0,0v0.2c0,0.1,0,0.1,0,0.2
				c0,0.1,0.1,0.3,0.2,0.3c0.1,0,0.2-0.1,0.3-0.2c0-0.2,0-0.3,0-0.5C14.7,7.9,14.2,6.6,13.1,5.6z"/>
			<path id="Path_905" class="st0" d="M14.3,11.8l-1.8-1c-0.6-0.3-0.6-0.1-1.3,0.6c-0.2,0.2-0.4,0.6-0.8,0.5c-0.9-0.4-1.8-1-2.5-1.7
				C7.8,10,6.9,8.9,6.8,8.6C6.8,8,8,7.8,7.6,6.7L6.8,4.9C6,3.1,3.9,6,4.1,7.3c0.5,3.2,6.1,8.5,9.3,6.8C14.1,13.6,15,12.3,14.3,11.8z
				"/>
		</g>
	</g>
</g>
</svg>
