<svg xmlns="http://www.w3.org/2000/svg" xmlns:xlink="http://www.w3.org/1999/xlink" viewBox="0 0 175.58 39.79"><defs><style>.cls-1{fill:none;}.cls-2{clip-path:url(#clip-path);}.cls-3{fill:#dae000;}</style><clipPath id="clip-path" transform="translate(-6.7 -2.19)"><rect class="cls-1" width="188.6" height="47.56"/></clipPath></defs><g id="레이어_2" data-name="레이어 2"><g id="레이어_1-2" data-name="레이어 1"><g class="cls-2"><path class="cls-3" d="M28.85,19q-3.13,5.13-6,5.56v9.32a8.26,8.26,0,0,1-2.15,5.8A7,7,0,0,1,15.4,42,7.74,7.74,0,0,1,11.8,41,6.82,6.82,0,0,1,9,38.43l2.46-2.75.41.38a8.78,8.78,0,0,0-.11,1.11A3.25,3.25,0,0,0,13,39.63a4.15,4.15,0,0,0,2.89,1.09,3.39,3.39,0,0,0,2.89-1.43,6.61,6.61,0,0,0,1-4V19A30.38,30.38,0,0,1,16,23.59a4.24,4.24,0,0,1-2.76,1.25c-1.87,0-2.81-1-2.81-3.08V14.88a26.76,26.76,0,0,1-2.87,5l-.85-.79a31.17,31.17,0,0,0,3.72-7.42l3.13-1.55V21.65c0,.68.28,1,.83,1h.29q1.08,0,5.13-6.11V11.65l3.1-1.55V22.79q2-.18,5-4.57Z" transform="translate(-6.7 -2.19)"/><path class="cls-3" d="M49.09,19.48q-3.53,5.2-6.74,5.21A2,2,0,0,1,40.7,24a5.6,5.6,0,0,1-.57-3.12V18.39Q37,23.06,35.67,24a4.13,4.13,0,0,1-2.43.95,2.24,2.24,0,0,1-1.86-.82c-.44-.54-.66-1.81-.66-3.8V15.52A20.36,20.36,0,0,1,28.14,20l-1-.67a22.68,22.68,0,0,0,3.54-7.56l2.93-1.49v10.6a6.19,6.19,0,0,0,.13,1.54c.09.26.33.4.72.4a2.93,2.93,0,0,0,1.69-1,19.71,19.71,0,0,0,2.49-3.19,15.64,15.64,0,0,0,1.45-2.41V11.74l3-1.49v9.17a14.83,14.83,0,0,0,.13,2.47.7.7,0,0,0,.74.66q1.42,0,4.25-3.84Z" transform="translate(-6.7 -2.19)"/><path class="cls-3" d="M69.13,19.48q-3.54,5.2-6.77,5.21A2,2,0,0,1,60.75,24a5.7,5.7,0,0,1-.56-3.15V14.14c0-1-.32-1.55-1-1.55a1.78,1.78,0,0,0-1,.35,6.06,6.06,0,0,0-1.1,1c-.39.46-.94,1.22-1.66,2.29A9.67,9.67,0,0,0,54.42,18v5.27l-2.93,1.88V15.34A18.71,18.71,0,0,1,48.74,20l-.91-.73a21.85,21.85,0,0,0,3.72-7.5l2.87-1.38v5.45a21.11,21.11,0,0,1,3.46-4.16,4.27,4.27,0,0,1,2.67-1.05,2.24,2.24,0,0,1,1.9.88c.45.58.67,2,.67,4.33V19.8A11.34,11.34,0,0,0,63.26,22a.66.66,0,0,0,.71.58q1.44,0,4.25-3.84Z" transform="translate(-6.7 -2.19)"/><path class="cls-3" d="M74.7,10a9.21,9.21,0,0,1,3.66,3.43,8.65,8.65,0,0,1,1.38,4.54,7.47,7.47,0,0,1-1.6,4.75,5,5,0,0,1-4.09,2,5.36,5.36,0,0,1-2.66-.82,7.47,7.47,0,0,1-2.49-2.4,7.41,7.41,0,0,1,2.63-2.4l.24.29a4.5,4.5,0,0,0-.06.85,3.29,3.29,0,0,0,.87,2.24,2.64,2.64,0,0,0,2,1,2.67,2.67,0,0,0,2.24-1.16,4.71,4.71,0,0,0,.88-2.91q0-3.63-4.31-6.48l-2.49,3.93A35,35,0,0,1,68.72,20l-.91-.73a78.61,78.61,0,0,0,6-10.78l.7.06Zm10,9.53q-3.14,5.15-7.91,5.59l-.18-.56a9.14,9.14,0,0,0,3.59-1.65,21.17,21.17,0,0,0,3.62-4.09Z" transform="translate(-6.7 -2.19)"/><path class="cls-3" d="M83.34,19.3q3.81-5.44,6.24-7a9.24,9.24,0,0,1,5.1-1.58,5.65,5.65,0,0,1,4,1.35,4.9,4.9,0,0,1,1.45,3.75,8.81,8.81,0,0,1-2.76,6.27A8.66,8.66,0,0,1,91,24.9a5.13,5.13,0,0,1-3.8-1.43,4.91,4.91,0,0,1-1.42-3.61,11.22,11.22,0,0,1,.18-2.11A23.27,23.27,0,0,0,84.31,20ZM92.86,23a4.36,4.36,0,0,0,3.55-1.61,6.53,6.53,0,0,0,1.31-4.28,5,5,0,0,0-1.23-3.61,4.26,4.26,0,0,0-3.25-1.31,4.2,4.2,0,0,0-3.41,1.55A6.66,6.66,0,0,0,88.55,18Q88.55,23,92.86,23Zm10.58-3.48A13.57,13.57,0,0,1,99,23.88a11.9,11.9,0,0,1-4.16,1.31l-.23-.68a12.41,12.41,0,0,0,7.85-5.74Z" transform="translate(-6.7 -2.19)"/><path class="cls-3" d="M102.12,19.3q3.81-5.44,6.24-7a9.24,9.24,0,0,1,5.1-1.58,5.65,5.65,0,0,1,4,1.35,4.9,4.9,0,0,1,1.45,3.75,8.81,8.81,0,0,1-2.76,6.27,8.66,8.66,0,0,1-6.41,2.84,5.13,5.13,0,0,1-3.8-1.43,4.87,4.87,0,0,1-1.42-3.61,11.22,11.22,0,0,1,.18-2.11A23.27,23.27,0,0,0,103.09,20ZM111.64,23a4.36,4.36,0,0,0,3.55-1.61,6.59,6.59,0,0,0,1.31-4.28,5,5,0,0,0-1.23-3.61A4.26,4.26,0,0,0,112,12.15a4.2,4.2,0,0,0-3.41,1.55A6.66,6.66,0,0,0,107.33,18Q107.33,23,111.64,23Zm10.58-3.48a13.66,13.66,0,0,1-4.43,4.4,11.9,11.9,0,0,1-4.16,1.31l-.23-.68a12.41,12.41,0,0,0,7.85-5.74Z" transform="translate(-6.7 -2.19)"/><path class="cls-3" d="M151,19.48q-3.44,5.2-6.92,5.21a1.89,1.89,0,0,1-1.54-.66q-.54-.66-.54-3.18V14c0-.73-.28-1.09-.85-1.09a1.8,1.8,0,0,0-1,.4,6.23,6.23,0,0,0-1.19,1.18,24.15,24.15,0,0,0-1.68,2.6,9.42,9.42,0,0,0-1.06,2.06v4.63l-2.93,1.44V14.55c0-.88-.3-1.31-.91-1.31a2.63,2.63,0,0,0-1.67.82,12.13,12.13,0,0,0-2.08,2.84,11.76,11.76,0,0,0-1.17,2.28v4.63l-2.93,1.44V15.52A17.71,17.71,0,0,1,121.87,20L121,19.3a20.49,20.49,0,0,0,3.54-7.5l2.93-1.38v6.07q3.34-5.71,6.3-5.72a2.06,2.06,0,0,1,1.85,1c.41.65.61,2.23.61,4.75A18.58,18.58,0,0,1,139.46,12a4.43,4.43,0,0,1,3-1.26c1.68,0,2.52,1.15,2.52,3.43v5.39a8.43,8.43,0,0,0,.21,2.51.71.71,0,0,0,.7.45c.88,0,2.29-1.28,4.25-3.84Z" transform="translate(-6.7 -2.19)"/><path class="cls-3" d="M162.24,19.48a16,16,0,0,1-3.43,3.86,5.42,5.42,0,0,1-3.17,1.35c-1,0-1.71-.28-2-.85a7.65,7.65,0,0,1-.41-3V15.52A17.71,17.71,0,0,1,150.61,20l-.91-.73A20.64,20.64,0,0,0,153.24,12l2.93-1.56v9.29a10.12,10.12,0,0,0,.16,2.29.75.75,0,0,0,.81.55c.88,0,2.29-1.28,4.25-3.84Zm-5-14.77-2,2.61-2.08-2.61,2.08-2.52Z" transform="translate(-6.7 -2.19)"/><path class="cls-3" d="M182.28,19.48c-2.37,3.47-4.62,5.21-6.77,5.21A1.94,1.94,0,0,1,173.9,24a5.7,5.7,0,0,1-.56-3.15V14.14c0-1-.32-1.55-1-1.55a1.78,1.78,0,0,0-1,.35,6.06,6.06,0,0,0-1.1,1,26.51,26.51,0,0,0-1.65,2.29A9,9,0,0,0,167.57,18v5.27l-2.93,1.88V15.34A18.76,18.76,0,0,1,161.88,20l-.9-.73a21.85,21.85,0,0,0,3.72-7.5l2.87-1.38v5.45A20.77,20.77,0,0,1,171,11.71a4.23,4.23,0,0,1,2.66-1.05,2.26,2.26,0,0,1,1.91.88c.45.58.67,2,.67,4.33V19.8A11.59,11.59,0,0,0,176.4,22a.67.67,0,0,0,.72.58c1,0,2.37-1.28,4.25-3.84Z" transform="translate(-6.7 -2.19)"/></g></g></g></svg>